{
    "asset" : {
        "generator" : "Khronos glTF Blender I/O v1.7.33",
        "version" : "2.0"
    },
    "scene" : 0,
    "scenes" : [
        {
            "extras" : {
                "b_export" : 1,
                "b_bake_lightmap" : 1,
                "b_interactive" : 1,
                "b_player" : 1,
                "b_renderer" : 1,
                "b_settings" : 1,
                "s_cubemap_path" : "/env/",
                "export_path" : "/Users/fpatiny/Documents/Projects/",
                "s_project_name" : "Second_test",
                "b_aa" : 0,
                "s_output" : "exporting..."
            },
            "name" : "Scene",
            "nodes" : [
                0
            ]
        }
    ],
    "nodes" : [
        {
            "mesh" : 0,
            "name" : "Rounded_cube",
            "rotation" : [
                -0.4279753267765045,
                0.017631715163588524,
                -0.7877740263938904,
                0.442649245262146
            ],
            "scale" : [
                1.013967752456665,
                1.013967752456665,
                1.013967752456665
            ]
        }
    ],
    "materials" : [
        {
            "doubleSided" : true,
            "name" : "Material",
            "pbrMetallicRoughness" : {
                "baseColorFactor" : [
                    0.800000011920929,
                    0.800000011920929,
                    0.800000011920929,
                    1
                ],
                "metallicFactor" : 0,
                "roughnessFactor" : 0.4000000059604645
            }
        }
    ],
    "meshes" : [
        {
            "name" : "Cube.001",
            "primitives" : [
                {
                    "attributes" : {
                        "POSITION" : 0,
                        "NORMAL" : 1,
                        "TANGENT" : 2,
                        "TEXCOORD_0" : 3
                    },
                    "indices" : 4,
                    "material" : 0
                }
            ]
        }
    ],
    "accessors" : [
        {
            "bufferView" : 0,
            "componentType" : 5126,
            "count" : 1536,
            "max" : [
                0.8395062685012817,
                0.8395062685012817,
                0.8395062685012817
            ],
            "min" : [
                -0.8395062685012817,
                -0.8395062685012817,
                -0.8395062685012817
            ],
            "type" : "VEC3"
        },
        {
            "bufferView" : 1,
            "componentType" : 5126,
            "count" : 1536,
            "type" : "VEC3"
        },
        {
            "bufferView" : 2,
            "componentType" : 5126,
            "count" : 1536,
            "type" : "VEC4"
        },
        {
            "bufferView" : 3,
            "componentType" : 5126,
            "count" : 1536,
            "type" : "VEC2"
        },
        {
            "bufferView" : 4,
            "componentType" : 5123,
            "count" : 2304,
            "type" : "SCALAR"
        }
    ],
    "bufferViews" : [
        {
            "buffer" : 0,
            "byteLength" : 18432,
            "byteOffset" : 0
        },
        {
            "buffer" : 0,
            "byteLength" : 18432,
            "byteOffset" : 18432
        },
        {
            "buffer" : 0,
            "byteLength" : 24576,
            "byteOffset" : 36864
        },
        {
            "buffer" : 0,
            "byteLength" : 12288,
            "byteOffset" : 61440
        },
        {
            "buffer" : 0,
            "byteLength" : 4608,
            "byteOffset" : 73728
        }
    ],
    "buffers" : [
        {
            "byteLength" : 78336,
            "uri" : "data:application/octet-stream;base64,"
        }
    ]
}
