{
    "asset" : {
        "generator" : "Khronos glTF Blender I/O v1.7.33",
        "version" : "2.0"
    },
    "scene" : 0,
    "scenes" : [
        {
            "extras" : {
                "b_export" : 1,
                "b_bake_lightmap" : 1,
                "b_interactive" : 1,
                "b_player" : 1,
                "b_renderer" : 1,
                "b_settings" : 1,
                "s_cubemap_path" : "/env/",
                "export_path" : "/Users/fpatiny/Documents/Projects/",
                "s_project_name" : "Second_test",
                "b_aa" : 0,
                "s_output" : "exporting..."
            },
            "name" : "Scene",
            "nodes" : [
                0
            ]
        }
    ],
    "nodes" : [
        {
            "mesh" : 0,
            "name" : "Torus",
            "rotation" : [
                0.37716272473335266,
                0.15455560386180878,
                0.48770204186439514,
                0.7720152735710144
            ],
            "scale" : [
                2.3002219200134277,
                2.3002219200134277,
                2.3002219200134277
            ]
        }
    ],
    "meshes" : [
        {
            "name" : "Torus",
            "primitives" : [
                {
                    "attributes" : {
                        "POSITION" : 0,
                        "NORMAL" : 1,
                        "TANGENT" : 2,
                        "TEXCOORD_0" : 3
                    },
                    "indices" : 4
                }
            ]
        }
    ],
    "accessors" : [
        {
            "bufferView" : 0,
            "componentType" : 5126,
            "count" : 2304,
            "max" : [
                1.25,
                0.25,
                1.25
            ],
            "min" : [
                -1.25,
                -0.25,
                -1.25
            ],
            "type" : "VEC3"
        },
        {
            "bufferView" : 1,
            "componentType" : 5126,
            "count" : 2304,
            "type" : "VEC3"
        },
        {
            "bufferView" : 2,
            "componentType" : 5126,
            "count" : 2304,
            "type" : "VEC4"
        },
        {
            "bufferView" : 3,
            "componentType" : 5126,
            "count" : 2304,
            "type" : "VEC2"
        },
        {
            "bufferView" : 4,
            "componentType" : 5123,
            "count" : 3456,
            "type" : "SCALAR"
        }
    ],
    "bufferViews" : [
        {
            "buffer" : 0,
            "byteLength" : 27648,
            "byteOffset" : 0
        },
        {
            "buffer" : 0,
            "byteLength" : 27648,
            "byteOffset" : 27648
        },
        {
            "buffer" : 0,
            "byteLength" : 36864,
            "byteOffset" : 55296
        },
        {
            "buffer" : 0,
            "byteLength" : 18432,
            "byteOffset" : 92160
        },
        {
            "buffer" : 0,
            "byteLength" : 6912,
            "byteOffset" : 110592
        }
    ],
    "buffers" : [
        {
            "byteLength" : 117504,
            "uri" : "data:application/octet-stream;base64,"
        }
    ]
}
